<?xml version="1.0" encoding="utf-8"?>
<!-- Generator: Adobe Illustrator 24.0.0, SVG Export Plug-In . SVG Version: 6.00 Build 0)  -->
<svg version="1.1" id="OBJECTS" xmlns="http://www.w3.org/2000/svg" xmlns:xlink="http://www.w3.org/1999/xlink" x="0px" y="0px"
	 viewBox="0 0 639 639" style="enable-background:new 0 0 639 639;" xml:space="preserve">
<style type="text/css">
	.st0{fill:#AF8338;}
	.st1{fill:none;stroke:#AF8338;stroke-width:12;stroke-miterlimit:10;}
	.st2{fill:#F5EDDF;}
	.st3{fill:#EDDDC3;}
</style>
<g>
	<circle class="st0" cx="319.5" cy="319.5" r="300"/>
	<circle class="st1" cx="319.5" cy="319.5" r="313.5"/>
	<g>
		<path class="st2" d="M548.3,387.1c-0.3-4-1.3-8.3-3.2-12.8c-10.8-25.6-30.9-45.4-53.6-61.3c0.4,1.1,0.7,2.1,0.9,3.2
			c2.4,9.2,1.6,19-1.7,27.3c-3.3,8.3-8.4,15.5-15.5,20.7c0.4-8.8,1.5-16.4,1.6-23.7c0.4-15.5-2.8-27.8-11.5-40.4
			c-2.6-3.7-6.1-6.6-10.1-8.7c-9.9-5-20.1-9.3-30.6-13.1c-3.8-1.4-7.7-2.7-11.6-3.9c-2-0.6-4.1-1.3-6.1-1.8c-1-0.3-5.1-0.8-5.6-1.6
			c1.3,2,2.4,4.1,3.4,6.3c2.2,5.1,3.4,10.6,3.6,16c0.1,5.4-0.6,10.7-2.2,15.6c-3.2,9.8-8.8,18.1-16.5,24.2c1-9.8,2.5-18.5,2.4-26.7
			c0.1-8.2-1.1-15.4-4-22c-0.3-0.8-0.8-1.7-1.4-2.7c-6.4-10.9-17.8-17.9-30.4-19.4c-1.7-0.2-3.4-0.4-5.1-0.6
			c-13.9-1.4-27.9-1.9-41.9-1.5c-10.8,0.3-21.7,1.3-32.5,2.8c2,0.9,4,2,5.8,3.3c4.1,2.8,7.6,6.4,10.4,10.5c5.6,8.1,8,17.6,8,26.5
			c-0.1,9-2.2,17.7-7,25.2c-2.8-8.5-4.6-16.1-7.1-23c-2.4-7-5.2-13.2-8.9-18.4c-0.4-0.7-1.2-1.5-2.1-2.4
			c-12.1-11.9-29.9-16.2-46.1-11.2c-20.7,6.4-40.7,15.1-59.3,26c8.1,0.4,16.6,3.5,23.3,9.1c7.2,6.2,11.8,14.9,13.2,23.5
			c1.4,8.7,0.2,17.3-3.7,24.8c-3.6-7.7-6.4-14.5-9.8-20.2c-3.4-5.8-7.1-10.5-11.4-14.2c-4.4-3.7-9.6-6.6-15.9-9l-10.9-4.3
			c-13.7,9.4-26.4,20-37.9,32c-20.1,21-43.3,59-9.3,78.1c4.4,2.5,9.4,3.8,14.5,3.8h389.5c10.8,0,21.4-4.3,28.5-12.5
			C545.9,404.6,549,396.9,548.3,387.1z M137.6,383.3c-2.1,0-3.8-1.7-3.8-3.8s1.7-3.8,3.8-3.8c2.1,0,3.8,1.7,3.8,3.8
			S139.7,383.3,137.6,383.3z M206.4,408.9c-2.1,0-3.8-1.7-3.8-3.8c0-2.1,1.7-3.8,3.8-3.8c2.1,0,3.8,1.7,3.8,3.8
			C210.2,407.2,208.5,408.9,206.4,408.9z M210.2,303.4c-2.1,0-3.8-1.7-3.8-3.8c0-2.1,1.7-3.8,3.8-3.8c2.1,0,3.8,1.7,3.8,3.8
			C214,301.7,212.3,303.4,210.2,303.4z M263.3,378.9c-2.1,0-3.8-1.7-3.8-3.8s1.7-3.8,3.8-3.8s3.8,1.7,3.8,3.8
			S265.4,378.9,263.3,378.9z M266.6,324.4c-2.1,0-3.8-1.7-3.8-3.8c0-2.1,1.7-3.8,3.8-3.8c2.1,0,3.8,1.7,3.8,3.8
			C270.5,322.7,268.7,324.4,266.6,324.4z M320.1,294.7c-2.1,0-3.8-1.7-3.8-3.8c0-2.1,1.7-3.8,3.8-3.8s3.8,1.7,3.8,3.8
			C323.9,292.9,322.2,294.7,320.1,294.7z M355.9,384.4c-2.1,0-3.8-1.7-3.8-3.8c0-2.1,1.7-3.8,3.8-3.8c2.1,0,3.8,1.7,3.8,3.8
			C359.7,382.7,358,384.4,355.9,384.4z M361.7,336.8c-2.1,0-3.8-1.7-3.8-3.8s1.7-3.8,3.8-3.8c2.1,0,3.8,1.7,3.8,3.8
			S363.8,336.8,361.7,336.8z M410.7,406.8c-2.1,0-3.8-1.7-3.8-3.8c0-2.1,1.7-3.8,3.8-3.8s3.8,1.7,3.8,3.8
			C414.5,405.1,412.8,406.8,410.7,406.8z M436.9,324.4c-2.1,0-3.8-1.7-3.8-3.8c0-2.1,1.7-3.8,3.8-3.8s3.8,1.7,3.8,3.8
			C440.7,322.7,439,324.4,436.9,324.4z M463.2,383.4c-2.1,0-3.8-1.7-3.8-3.8s1.7-3.8,3.8-3.8c2.1,0,3.8,1.7,3.8,3.8
			S465.3,383.4,463.2,383.4z M517.5,369.3c-2.1,0-3.8-1.7-3.8-3.8c0-2.1,1.7-3.8,3.8-3.8s3.8,1.7,3.8,3.8
			C521.3,367.6,519.6,369.3,517.5,369.3z"/>
		<g>
			<path class="st3" d="M202.5,355.5L202.5,355.5c-3.3-7.2-6-13.5-9.2-19c-3.4-5.8-7.1-10.5-11.4-14.2c-4.4-3.7-9.6-6.6-15.9-9
				l-10.9-4.3c-3.5,2.4-6.9,4.9-10.3,7.4C144.9,316.4,176.8,318.9,202.5,355.5z"/>
			<path class="st3" d="M273.5,297.6c13.2,19.6,20.4,30.7,20.4,30.7c-2.8-8.5-4.6-16.1-7.1-23c-2.4-7-5.2-13.2-8.9-18.4
				c-0.4-0.7-1.2-1.5-2.1-2.4c-11.2-11.1-27.4-15.5-42.6-12.1C233.5,272.5,260.4,278.1,273.5,297.6z"/>
			<path class="st3" d="M389.5,332.9c1-9.8,2.5-18.5,2.4-26.7c0.1-8.2-1.1-15.4-4-22c-0.3-0.8-0.8-1.7-1.4-2.7
				c-6.4-10.9-17.8-17.9-30.4-19.4c-1.7-0.2-3.4-0.4-5.1-0.6C351.1,261.6,387.6,270.9,389.5,332.9z"/>
			<path class="st3" d="M475.3,363.9c0.4-8.8,1.5-16.4,1.6-23.7c0.4-15.5-2.8-27.8-11.5-40.4c-2.6-3.7-6.1-6.6-10.1-8.7
				c-1.5-0.7-3-1.4-4.5-2.2C452.3,290.3,474.9,310,475.3,363.9z"/>
		</g>
		<g>
			<g>
				<path class="st2" d="M190.5,246.4c0.2-2.2-0.5-3.9-1.5-5.4c-1-1.4-2.3-2.7-3.7-3.7c-2.8-2.1-6.2-3.7-9.9-6
					c-1.8-1.2-3.7-2.5-5.5-4.3c-1.8-1.8-3.5-4.2-4.5-6.9c-1.1-2.6-1.5-5.5-1.4-8.1c0.1-2.7,0.5-5.2,1.2-7.6c0.7-2.4,1.7-4.6,2.9-6.6
					c1.2-2,2.4-3.8,3.6-5.6c2.5-3.4,5.1-6.4,7.4-9.4c2.4-2.9,4.3-5.8,5.7-9.1c1.4-3.3,2.1-6.9,1.1-11.1c3.4,2.7,5.1,7.6,5,12.2
					c0,4.6-1.4,9.3-3.3,13.2c-1.8,4-4,7.5-5.9,10.8c-0.9,1.7-1.9,3.2-2.6,4.8c-0.8,1.5-1.4,3-1.8,4.5c-0.9,3-1.2,5.8-0.6,8.1
					c0.3,1.2,0.8,2.2,1.6,3.5c0.8,1.2,2,2.5,3.3,3.9c1.3,1.4,2.8,2.8,4.3,4.4c1.5,1.5,3,3.4,4.2,5.4c1.2,2,2.1,4.2,2.4,6.6
					c0.1,1.2,0.1,2.4-0.2,3.5C191.7,244.6,191.2,245.7,190.5,246.4z"/>
				<path class="st2" d="M473.3,246.4c0.2-2.2-0.5-3.9-1.5-5.4c-1-1.4-2.3-2.7-3.7-3.7c-2.8-2.1-6.2-3.7-9.9-6
					c-1.8-1.2-3.7-2.5-5.5-4.3c-1.8-1.8-3.5-4.2-4.5-6.9c-1.1-2.6-1.5-5.5-1.4-8.1c0.1-2.7,0.5-5.2,1.2-7.6c0.7-2.4,1.7-4.6,2.9-6.6
					c1.2-2,2.4-3.8,3.6-5.6c2.5-3.4,5.1-6.4,7.4-9.4c2.4-2.9,4.3-5.8,5.7-9.1c1.4-3.3,2.1-6.9,1.1-11.1c3.4,2.7,5.1,7.6,5,12.2
					c0,4.6-1.4,9.3-3.3,13.2c-1.8,4-4,7.5-5.9,10.8c-0.9,1.7-1.9,3.2-2.6,4.8c-0.8,1.5-1.4,3-1.8,4.5c-0.9,3-1.2,5.8-0.6,8.1
					c0.3,1.2,0.8,2.2,1.6,3.5c0.8,1.2,2,2.5,3.3,3.9c1.3,1.4,2.8,2.8,4.3,4.4c1.5,1.5,3,3.4,4.2,5.4c1.2,2,2.1,4.2,2.4,6.6
					c0.1,1.2,0.1,2.4-0.2,3.5C474.5,244.6,474,245.7,473.3,246.4z"/>
				<path class="st2" d="M331.9,219.4c0.2-2.2-0.5-3.9-1.5-5.4c-1-1.4-2.3-2.7-3.7-3.7c-2.8-2.1-6.2-3.7-9.9-6
					c-1.8-1.2-3.7-2.5-5.5-4.3c-1.8-1.8-3.5-4.2-4.5-6.9c-1.1-2.6-1.5-5.5-1.4-8.1c0.1-2.7,0.5-5.2,1.2-7.6c0.7-2.4,1.7-4.6,2.9-6.6
					c1.2-2,2.4-3.8,3.6-5.6c2.5-3.4,5.1-6.4,7.4-9.4c2.4-2.9,4.3-5.8,5.7-9.1c1.4-3.3,2.1-6.9,1.1-11.1c3.4,2.7,5.1,7.6,5,12.2
					c0,4.6-1.4,9.3-3.3,13.2c-1.8,4-4,7.5-5.9,10.8c-0.9,1.7-1.9,3.2-2.6,4.8c-0.8,1.5-1.4,3-1.8,4.5c-0.9,3-1.2,5.8-0.6,8.1
					c0.3,1.2,0.8,2.2,1.6,3.5c0.8,1.2,2,2.5,3.3,3.9c1.3,1.4,2.8,2.8,4.3,4.4c1.5,1.5,3,3.4,4.2,5.4c1.2,2,2.1,4.2,2.4,6.6
					c0.1,1.2,0.1,2.4-0.2,3.5C333.1,217.6,332.6,218.7,331.9,219.4z"/>
			</g>
		</g>
	</g>
</g>
</svg>
